<?xml version="1.0" encoding="utf-8"?>
<svg xmlns="http://www.w3.org/2000/svg" viewBox="0 0 26 26" width="50" height="50">
  <path d="M2 2L2 4L5 4L5 2L2 2 z M 7 2L7 4L16 4L16 2L7 2 z M 18 2L18 4L20 4L20 2L18 2 z M 22 2L22 4L24 4L24 2L22 2 z M 2 7L2 9L5 9L5 7L2 7 z M 7 7L7 9L16 9L16 7L7 7 z M 22 7L22 9L24 9L24 7L22 7 z M 2 12L2 14L5 14L5 12L2 12 z M 7 12L7 14L16 14L16 12L7 12 z M 22 12L22 14L24 14L24 12L22 12 z M 2 17L2 19L5 19L5 17L2 17 z M 7 17L7 19L16 19L16 17L7 17 z M 18 17L18 19L20 19L20 17L18 17 z M 22 17L22 19L24 19L24 17L22 17 z M 2 22L2 24L5 24L5 22L2 22 z M 7 22L7 24L16 24L16 22L7 22 z M 22 22L22 24L24 24L24 22L22 22 z" fill="#313649" />
</svg>