<svg xmlns="http://www.w3.org/2000/svg" viewBox="0 0 50 50">
  <path d="M27 6C22.730469 6 19.453125 7.757813 17.632813 10.34375C17.210938 10.941406 16.871094 11.585938 16.613281 12.253906L16 11L15.375 11C11.890625 11 9.308594 12.410156 7.953125 14.503906C6.714844 16.417969 6.636719 18.8125 7.40625 21.050781C7.074219 21.507813 6.828125 22.078125 6.921875 22.878906C7.027344 23.78125 7.265625 24.449219 7.640625 24.941406C7.804688 25.160156 8.046875 25.167969 8.253906 25.300781C8.386719 26.03125 8.582031 26.761719 8.878906 27.367188C9.058594 27.734375 9.25 28.0625 9.453125 28.347656C9.519531 28.4375 9.632813 28.5 9.695313 28.578125C9.703125 29.375 9.710938 30.066406 9.648438 30.890625C9.464844 31.339844 9.015625 31.757813 8.179688 32.179688C7.3125 32.617188 6.148438 33.019531 4.96875 33.539063C3.789063 34.058594 2.570313 34.695313 1.609375 35.71875C0.644531 36.746094 0 38.1875 0 40L0 41L7.234375 41C7.089844 41.621094 7 42.285156 7 43L7 44L43 44L43 43C43 42.285156 42.914063 41.621094 42.765625 41L50.0625 41L50 39.941406C49.890625 38.125 49.164063 36.703125 48.15625 35.691406C47.148438 34.683594 45.902344 34.050781 44.703125 33.542969C43.5 33.03125 42.332031 32.636719 41.460938 32.203125C40.625 31.789063 40.183594 31.382813 40 30.941406L40 28.6875C40.070313 28.609375 40.171875 28.554688 40.246094 28.46875C40.472656 28.195313 40.703125 27.871094 40.921875 27.503906C41.269531 26.917969 41.503906 26.183594 41.671875 25.441406C41.839844 25.332031 41.917969 25.328125 42.125 25.101563C42.527344 24.664063 42.929688 23.945313 43.046875 22.96875C43.144531 22.125 42.863281 21.558594 42.59375 21.171875C42.796875 20.675781 43.046875 20.214844 43.105469 19.613281C43.191406 18.6875 43.136719 17.652344 42.875 16.636719C42.609375 15.621094 42.140625 14.617188 41.34375 13.832031C40.699219 13.199219 39.785156 12.824219 38.761719 12.671875L38.015625 11L37.367188 11C35.914063 11 34.441406 11.1875 33.0625 11.636719C32.726563 10.882813 32.292969 10.175781 31.714844 9.578125C30.953125 8.796875 29.886719 8.3125 28.691406 8.144531L27.617188 6 Z M 26.410156 8.0625L27.382813 10L28 10C28.984375 10 29.675781 10.355469 30.277344 10.972656C30.878906 11.589844 31.347656 12.5 31.628906 13.503906C31.914063 14.507813 32.019531 15.59375 31.964844 16.5C31.90625 17.40625 31.644531 18.136719 31.480469 18.347656L30.929688 19.058594L31.570313 19.679688C31.570313 19.679688 32.03125 20.199219 31.96875 20.722656C31.875 21.523438 31.589844 21.9375 31.355469 22.191406C31.121094 22.445313 31.007813 22.476563 31.007813 22.476563L30.457031 22.703125L30.394531 23.296875C30.320313 24.007813 29.941406 24.992188 29.496094 25.78125C29.273438 26.175781 29.039063 26.527344 28.839844 26.777344C28.640625 27.023438 28.421875 27.175781 28.53125 27.117188L28 27.398438L28 30.558594C27.808594 30.722656 27.535156 30.941406 27.195313 31.167969C26.53125 31.609375 25.667969 32 25 32C24.332031 32 23.46875 31.609375 22.804688 31.167969C22.464844 30.941406 22.191406 30.722656 22 30.558594L22 27.398438L21.46875 27.117188C21.578125 27.175781 21.355469 27.023438 21.15625 26.777344C20.960938 26.527344 20.726563 26.175781 20.503906 25.78125C20.058594 24.992188 19.679688 24.007813 19.605469 23.296875L19.542969 22.703125L18.992188 22.476563C18.992188 22.476563 18.878906 22.445313 18.644531 22.191406C18.410156 21.9375 18.125 21.523438 18.03125 20.722656L18.03125 20.71875C17.96875 20.195313 18.425781 19.679688 18.425781 19.679688L18.929688 19.195313L18.644531 18.558594C17.558594 16.113281 17.84375 13.515625 19.265625 11.496094C20.609375 9.589844 23.015625 8.214844 26.410156 8.0625 Z M 36.765625 13.105469L37.402344 14.535156L38.050781 14.535156C38.933594 14.535156 39.484375 14.808594 39.941406 15.261719C40.402344 15.710938 40.742188 16.378906 40.9375 17.136719C41.132813 17.894531 41.179688 18.726563 41.113281 19.421875C41.046875 20.113281 40.820313 20.675781 40.730469 20.792969L40.195313 21.496094L40.824219 22.109375C40.824219 22.109375 41.09375 22.445313 41.058594 22.734375C40.992188 23.3125 40.800781 23.585938 40.652344 23.75C40.5 23.914063 40.46875 23.910156 40.46875 23.910156L39.925781 24.140625L39.863281 24.730469C39.8125 25.222656 39.53125 25.925781 39.203125 26.484375C39.035156 26.761719 38.859375 27.007813 38.714844 27.183594C38.570313 27.355469 38.410156 27.453125 38.527344 27.390625L38 27.671875L38 30.199219C37.648438 30.480469 36.886719 31 36 31L35 31L35 33.902344C33.964844 33.460938 32.972656 33.039063 32.15625 32.617188C31 32.015625 30.285156 31.398438 30 30.738281L30 28.394531C30.121094 28.265625 30.285156 28.171875 30.40625 28.019531C30.6875 27.667969 30.96875 27.242188 31.238281 26.765625C31.695313 25.953125 32.015625 24.976563 32.207031 24C32.414063 23.878906 32.53125 23.859375 32.816406 23.554688C33.308594 23.027344 33.808594 22.167969 33.953125 20.957031C34.070313 19.976563 33.738281 19.308594 33.417969 18.839844C33.714844 18.183594 33.90625 17.457031 33.957031 16.625C34.019531 15.652344 33.929688 14.589844 33.691406 13.539063C34.632813 13.261719 35.695313 13.152344 36.765625 13.105469 Z M 14.808594 13.113281L15.4375 14.402344L16.0625 14.402344C16.074219 14.402344 16.082031 14.402344 16.09375 14.402344C15.929688 15.835938 16.105469 17.328125 16.636719 18.765625C16.300781 19.21875 15.921875 19.898438 16.046875 20.957031C16.191406 22.167969 16.691406 23.027344 17.183594 23.554688C17.464844 23.859375 17.582031 23.878906 17.789063 24C17.980469 24.976563 18.304688 25.953125 18.761719 26.765625C19.027344 27.242188 19.3125 27.667969 19.59375 28.019531C19.714844 28.171875 19.878906 28.265625 20 28.394531L20 30.738281C19.714844 31.402344 18.996094 32.019531 17.839844 32.625C17.027344 33.046875 16.03125 33.46875 15 33.910156L15 31L14 31C12.753906 31 11.992188 30.46875 11.6875 30.199219C11.707031 29.519531 11.703125 28.886719 11.703125 28.214844L11.703125 27.613281L11.179688 27.332031C11.328125 27.414063 11.191406 27.339844 11.078125 27.175781C10.960938 27.015625 10.8125 26.769531 10.675781 26.488281C10.40625 25.929688 10.167969 25.214844 10.109375 24.65625L10.023438 23.828125L9.261719 23.765625C9.253906 23.757813 9.257813 23.761719 9.234375 23.730469C9.152344 23.625 8.988281 23.308594 8.910156 22.648438C8.867188 22.292969 9 22.144531 9.019531 22.125L9.707031 21.691406L9.363281 20.90625C8.546875 19.039063 8.671875 17.078125 9.632813 15.59375C10.519531 14.222656 12.242188 13.269531 14.808594 13.113281 Z M 11.214844 32.246094C11.742188 32.542969 12.429688 32.832031 13.269531 32.941406L13.109375 34.761719C12.433594 35.085938 11.761719 35.4375 11.121094 35.855469L9.914063 33.484375C10.417969 33.152344 10.875 32.753906 11.214844 32.246094 Z M 38.449219 32.320313C38.851563 32.90625 39.417969 33.339844 40.03125 33.699219L39.019531 35.941406C38.335938 35.488281 37.617188 35.097656 36.890625 34.75L36.730469 32.9375C37.402344 32.828125 37.984375 32.582031 38.449219 32.320313 Z M 21.265625 32.503906C21.417969 32.617188 21.519531 32.714844 21.695313 32.832031C22.273438 33.21875 23.003906 33.613281 23.832031 33.832031L23.09375 42L22.683594 42C22.164063 40.667969 20.605469 36.429688 20.46875 33.289063C20.761719 33.050781 21.035156 32.796875 21.265625 32.503906 Z M 28.734375 32.503906C28.964844 32.796875 29.238281 33.050781 29.53125 33.289063C29.394531 36.429688 27.835938 40.667969 27.316406 42L26.90625 42L26.167969 33.832031C26.996094 33.613281 27.726563 33.21875 28.304688 32.832031C28.480469 32.714844 28.582031 32.617188 28.734375 32.503906Z" fill="#FFFFFF" />
</svg>