<svg xmlns="http://www.w3.org/2000/svg" viewBox="0 0 50 50">
  <path d="M41 3L9 3C6.242188 3 4 5.242188 4 8L4 34C4 36.757813 6.242188 39 9 39L13 39C12.96875 41.515625 12.707031 43.808594 10.484375 45.144531C10.101563 45.375 9.914063 45.835938 10.035156 46.269531C10.15625 46.699219 10.550781 47 11 47C14.554688 47 19.238281 45.589844 21.707031 39L41 39C43.757813 39 46 36.757813 46 34L46 8C46 5.242188 43.757813 3 41 3 Z M 14.429688 9L18 11.144531L18 12.234375L22.703125 16.933594L20.933594 18.703125L16.230469 14L15.140625 14L13 10.429688 Z M 36.949219 30.988281C36.9375 31.0625 36.910156 31.132813 36.886719 31.203125C36.863281 31.285156 36.84375 31.375 36.808594 31.457031C36.773438 31.539063 36.726563 31.613281 36.683594 31.691406C36.648438 31.757813 36.621094 31.824219 36.578125 31.886719C36.394531 32.160156 36.160156 32.394531 35.886719 32.578125C35.824219 32.621094 35.757813 32.648438 35.691406 32.683594C35.613281 32.726563 35.539063 32.773438 35.457031 32.808594C35.371094 32.84375 35.285156 32.863281 35.203125 32.886719C35.132813 32.910156 35.0625 32.9375 34.988281 32.949219C34.664063 33.015625 34.332031 33.015625 34.011719 32.949219C33.9375 32.9375 33.867188 32.910156 33.796875 32.886719C33.710938 32.863281 33.625 32.84375 33.542969 32.808594C33.460938 32.773438 33.386719 32.726563 33.308594 32.683594C33.242188 32.648438 33.175781 32.621094 33.113281 32.578125C32.976563 32.488281 32.847656 32.382813 32.730469 32.269531L26.414063 25.949219L29.949219 22.414063L36.269531 28.730469C36.382813 28.847656 36.488281 28.976563 36.578125 29.113281C36.621094 29.175781 36.648438 29.242188 36.683594 29.308594C36.726563 29.386719 36.773438 29.460938 36.808594 29.542969C36.84375 29.625 36.863281 29.710938 36.886719 29.796875C36.910156 29.867188 36.9375 29.9375 36.949219 30.011719C37.015625 30.335938 37.015625 30.664063 36.949219 30.988281 Z M 31 21C30.265625 21 29.566406 20.863281 28.914063 20.621094L17.269531 32.269531C17.152344 32.382813 17.023438 32.488281 16.886719 32.578125C16.824219 32.621094 16.757813 32.648438 16.691406 32.683594C16.613281 32.726563 16.539063 32.773438 16.457031 32.808594C16.375 32.84375 16.289063 32.863281 16.203125 32.886719C16.132813 32.910156 16.0625 32.9375 15.988281 32.949219C15.667969 33.015625 15.335938 33.015625 15.011719 32.949219C14.9375 32.9375 14.867188 32.910156 14.796875 32.886719C14.714844 32.863281 14.628906 32.84375 14.542969 32.808594C14.460938 32.773438 14.386719 32.726563 14.308594 32.683594C14.242188 32.648438 14.175781 32.621094 14.113281 32.578125C13.839844 32.394531 13.605469 32.160156 13.421875 31.886719C13.378906 31.824219 13.351563 31.757813 13.316406 31.691406C13.273438 31.613281 13.226563 31.539063 13.191406 31.457031C13.15625 31.371094 13.136719 31.285156 13.113281 31.203125C13.089844 31.132813 13.0625 31.0625 13.050781 30.988281C12.984375 30.667969 12.984375 30.335938 13.050781 30.011719C13.0625 29.9375 13.089844 29.867188 13.113281 29.796875C13.136719 29.714844 13.15625 29.628906 13.191406 29.542969C13.226563 29.460938 13.273438 29.386719 13.316406 29.308594C13.351563 29.242188 13.378906 29.175781 13.421875 29.113281C13.511719 28.976563 13.617188 28.847656 13.730469 28.734375L25.378906 17.085938C25.136719 16.433594 25 15.734375 25 15C25 11.6875 27.6875 9 31 9C31.925781 9 32.800781 9.214844 33.582031 9.589844L29.085938 14.085938L31.914063 16.914063L36.410156 12.417969C36.785156 13.199219 37 14.074219 37 15C37 18.3125 34.3125 21 31 21Z" fill="#FFFFFF" />
</svg>