<svg xmlns="http://www.w3.org/2000/svg" viewBox="0 0 50 50">
  <path d="M25 0C12.859375 0 3 9.859375 3 22C3 27.320313 4.886719 32.195313 8.03125 36L3.3125 36C2.953125 35.996094 2.617188 36.183594 2.433594 36.496094C2.253906 36.808594 2.253906 37.191406 2.433594 37.503906C2.617188 37.816406 2.953125 38.003906 3.3125 38L12 38L12 29.3125C12.003906 29.023438 11.878906 28.75 11.664063 28.558594C11.449219 28.367188 11.160156 28.277344 10.875 28.3125C10.371094 28.375 9.996094 28.804688 10 29.3125L10 35.1875C6.898438 31.664063 5 27.070313 5 22C5 10.941406 13.941406 2 25 2C36.058594 2 45 10.941406 45 22C45 27.285156 42.96875 32.082031 39.625 35.65625C39.332031 35.902344 39.207031 36.296875 39.300781 36.664063C39.394531 37.035156 39.695313 37.320313 40.066406 37.398438C40.441406 37.476563 40.828125 37.332031 41.0625 37.03125C44.738281 33.101563 47 27.800781 47 22C47 9.859375 37.140625 0 25 0 Z M 24.875 7.40625C21.195313 7.472656 18.507813 8.570313 16.875 10.71875C14.941406 13.265625 14.589844 17.144531 15.8125 22.21875C15.363281 22.769531 15.023438 23.605469 15.15625 24.71875C15.417969 26.914063 16.296875 27.824219 17 28.1875C17.339844 29.921875 18.296875 31.863281 19.21875 32.78125L19.21875 33.25C19.226563 34.265625 19.222656 35.144531 19.125 36.28125C18.511719 37.6875 16.476563 38.511719 14.125 39.4375C10.21875 40.972656 5.363281 42.871094 5 48.9375L4.9375 50L45.0625 50L45 48.9375C44.636719 42.871094 39.800781 40.972656 35.90625 39.4375C33.566406 38.511719 31.515625 37.6875 30.90625 36.28125C30.808594 35.148438 30.835938 34.265625 30.84375 33.25L30.84375 32.78125C31.738281 31.867188 32.660156 29.921875 33 28.1875C33.722656 27.828125 34.578125 26.921875 34.84375 24.71875C34.976563 23.628906 34.65625 22.800781 34.21875 22.25C34.800781 20.269531 35.988281 15.113281 33.9375 11.8125C33.078125 10.429688 31.777344 9.558594 30.0625 9.21875C29.117188 8.027344 27.304688 7.40625 24.875 7.40625Z" fill="#FFFFFF" />
</svg>