<?xml version="1.0" encoding="utf-8"?>
<svg xmlns="http://www.w3.org/2000/svg" viewBox="0 0 26 26" width="50" height="50">
  <path d="M8 0C5.800781 0 4 1.800781 4 4L4 11L1 11C0.398438 11 0 11.5 0 12L0 18C0 18.5 0.398438 19 1 19L4 19L4 22C4 24.199219 5.800781 26 8 26L20 26C22.199219 26 24 24.199219 24 22L24 8C24 6.898438 23.011719 5.886719 21.3125 4.1875C21.011719 3.988281 20.800781 3.699219 20.5 3.5C20.300781 3.199219 20.011719 2.988281 19.8125 2.6875C18.113281 0.988281 17.101563 0 16 0 Z M 8 2L15.3125 2C16.011719 2.199219 16 3.105469 16 3.90625L16 6.90625C16 7.507813 16.398438 7.90625 17 7.90625L20 7.90625C21 7.90625 22 7.90625 22 8.90625L22 21.90625C22 23.007813 21.101563 23.90625 20 23.90625L8 23.90625C6.898438 23.90625 6 23.007813 6 21.90625L6 19L17 19C17.601563 19 18 18.5 18 18L18 12C18 11.5 17.601563 11 17 11L6 11L6 4C6 2.898438 6.898438 2 8 2 Z M 2.8125 12C3.085938 11.988281 3.386719 12 3.6875 12C4.386719 12 5.007813 12.199219 5.40625 12.5C5.804688 12.800781 6 13.304688 6 13.90625C5.898438 14.507813 5.804688 15.007813 5.40625 15.40625C5.007813 15.804688 4.386719 16 3.6875 16L3.5 16L3.5 17.90625C3.5 18.007813 3.414063 18.09375 3.3125 18.09375L2.09375 18.09375C2.09375 17.992188 2 17.90625 2 17.90625L2 12.3125C2 12.210938 2.09375 12.195313 2.09375 12.09375C2.292969 12.042969 2.539063 12.011719 2.8125 12 Z M 7.09375 12L8.6875 12C9.6875 12 10.40625 12.195313 10.90625 12.59375C11.507813 13.09375 11.8125 13.90625 11.8125 14.90625C11.8125 16.207031 11.304688 16.914063 10.90625 17.3125C10.40625 17.8125 9.507813 18.09375 8.40625 18.09375C7.804688 18.09375 7.292969 18.101563 7.09375 18C7.09375 18 7 17.914063 7 17.8125L7 12.1875C7 12.085938 7.09375 12.101563 7.09375 12 Z M 13.09375 12L16.1875 12C16.289063 12 16.40625 12.085938 16.40625 12.1875L16.40625 13.1875C16.40625 13.289063 16.289063 13.40625 16.1875 13.40625L14.40625 13.40625L14.40625 14.40625L16.09375 14.40625C16.195313 14.40625 16.3125 14.492188 16.3125 14.59375L16.3125 15.59375C16.3125 15.695313 16.195313 15.8125 16.09375 15.8125L14.40625 15.8125L14.40625 17.90625C14.40625 18.007813 14.289063 18.09375 14.1875 18.09375L13.09375 18.09375C12.992188 18.09375 12.90625 18.007813 12.90625 17.90625L12.90625 12.1875C12.90625 12.085938 12.992188 12 13.09375 12 Z M 3.40625 13.3125L3.40625 14.6875L3.59375 14.6875C4.09375 14.6875 4.40625 14.40625 4.40625 13.90625C4.507813 13.40625 4.085938 13.3125 3.6875 13.3125 Z M 8.40625 13.3125L8.40625 16.8125L8.59375 16.8125C9.09375 16.8125 9.488281 16.707031 9.6875 16.40625C9.988281 16.105469 10.09375 15.601563 10.09375 15C10.292969 13.898438 9.8125 13.3125 8.8125 13.3125Z" fill="#313649" />
</svg>