<?xml version="1.0" encoding="utf-8"?>
<svg xmlns="http://www.w3.org/2000/svg" viewBox="0 0 26 26" width="50" height="50">
  <path d="M12.9375 1L11.8125 1.0625L11.71875 1.0625L11.5625 1.09375L11.875 3.0625L11.90625 3.0625L13.0625 3 Z M 9.5 1.5L9.46875 1.53125L9.4375 1.53125L9.375 1.5625L8.375 1.90625L8.3125 1.9375L8.28125 1.96875L7.46875 2.34375L8.34375 4.15625L9.0625 3.78125L9.0625 3.8125L9.96875 3.46875L10.0625 3.4375L9.84375 2.875 Z M 5.625 3.53125L5.40625 3.6875L5.34375 3.71875L5.3125 3.75L4.53125 4.46875L4.46875 4.53125L4.03125 5.03125L5.53125 6.375L5.875 5.9375L5.9375 5.875L6.59375 5.3125L6.65625 5.25L6.84375 5.125 Z M 19 4L20 11L22.0625 8.9375C22.628906 10.175781 23 11.519531 23 13C23 18.566406 18.566406 23 13 23C7.457031 23 3.035156 18.597656 3 13.0625L3 13.03125C3 13.019531 3 13.011719 3 13C3 12.96875 3 12.9375 3 12.90625L3.0625 11.90625L3.1875 11.15625L1.1875 10.875L1.0625 11.71875L1.0625 11.8125L1 12.8125C0.996094 12.855469 0.996094 12.894531 1 12.9375C1 12.957031 1 12.980469 1 13C1 19.636719 6.363281 25 13 25C19.636719 25 25 19.636719 25 13C25 10.925781 24.457031 9.050781 23.59375 7.40625L26 5 Z M 12.3125 5.6875L12.3125 7.40625C10.511719 7.707031 9.40625 9 9.40625 10.5C9.40625 12.101563 10.601563 12.988281 12.5 13.6875C13.898438 14.1875 14.5 14.699219 14.5 15.5C14.5 16.300781 13.792969 16.90625 12.59375 16.90625C11.492188 16.90625 10.511719 16.492188 9.8125 16.09375L9.3125 17.8125C9.914063 18.210938 11.085938 18.59375 12.1875 18.59375L12.1875 20.59375L13.8125 20.59375L13.8125 18.6875C15.710938 18.386719 16.8125 17 16.8125 15.5C16.8125 13.898438 15.90625 12.988281 13.90625 12.1875C12.304688 11.585938 11.6875 11.105469 11.6875 10.40625C11.6875 9.707031 12.105469 9.09375 13.40625 9.09375C14.605469 9.09375 15.414063 9.488281 15.8125 9.6875L16.3125 8C15.710938 7.699219 14.914063 7.40625 13.8125 7.40625L13.8125 5.6875 Z M 2.75 6.78125L2.46875 7.21875L2.4375 7.28125L2.40625 7.3125L1.96875 8.28125L1.9375 8.3125L1.90625 8.375L1.78125 8.75L3.65625 9.4375L3.8125 9.0625L3.78125 9.0625L4.21875 8.1875L4.4375 7.8125Z" fill="#313649" />
</svg>