<?xml version="1.0" standalone="no"?>
<!DOCTYPE svg PUBLIC "-//W3C//DTD SVG 20010904//EN"
 "http://www.w3.org/TR/2001/REC-SVG-20010904/DTD/svg10.dtd">
<svg version="1.0" xmlns="http://www.w3.org/2000/svg"
 width="512.000000pt" height="512.000000pt" viewBox="0 0 512.000000 512.000000"
 preserveAspectRatio="xMidYMid meet">

<g transform="translate(0.000000,512.000000) scale(0.100000,-0.100000)"
fill="#000000" stroke="none">
<path d="M95 4266 c-38 -17 -60 -41 -80 -89 -13 -32 -15 -217 -15 -1620 l0
-1583 22 -44 c13 -24 36 -53 51 -64 l28 -21 2459 0 2459 0 28 21 c15 11 38 40
50 64 l23 44 0 1586 0 1586 -22 44 c-13 24 -36 53 -51 64 l-28 21 -2447 2
c-2016 2 -2452 0 -2477 -11z m2381 -575 c23 -10 52 -34 65 -52 l24 -34 0
-1045 0 -1045 -24 -34 c-13 -18 -42 -42 -65 -52 -39 -18 -85 -19 -941 -19
-561 0 -913 4 -935 10 -41 11 -94 61 -109 103 -8 19 -11 350 -11 1038 0 835 2
1015 14 1042 17 41 65 85 102 97 16 4 436 9 934 9 862 1 907 0 946 -18z m1999
-252 c83 -23 140 -120 116 -199 -15 -50 -56 -99 -98 -116 -26 -11 -153 -14
-666 -14 l-633 0 -44 23 c-133 66 -110 273 34 308 52 12 1245 10 1291 -2z m21
-728 c75 -34 117 -117 96 -190 -16 -53 -48 -90 -96 -112 -39 -17 -79 -19 -670
-19 -619 0 -630 0 -673 21 -122 59 -122 238 -1 298 42 21 51 21 673 21 592 0
632 -2 671 -19z m-3 -715 c42 -17 83 -66 98 -116 24 -81 -33 -176 -119 -199
-29 -8 -228 -11 -670 -9 l-628 3 -37 25 c-106 72 -99 231 13 288 l44 22 633 0
c513 0 640 -3 666 -14z"/>
<path d="M1450 3150 c-181 -32 -321 -162 -370 -342 -7 -29 -11 -83 -8 -140 5
-118 40 -201 124 -288 l57 -60 -60 0 c-243 0 -453 -212 -456 -460 -1 -73 21
-126 70 -172 62 -59 45 -58 726 -58 l624 0 44 23 c51 27 105 99 115 155 11 59
-10 176 -46 248 -76 154 -243 264 -402 264 -32 0 -58 2 -58 4 0 3 22 27 49 55
173 177 170 464 -7 640 -68 69 -138 107 -231 127 -72 15 -103 16 -171 4z"/>
</g>
</svg>
