<?xml version="1.0" encoding="utf-8"?>
<svg xmlns="http://www.w3.org/2000/svg" viewBox="0 0 24 24" width="50" height="50">
  <path d="M5 3C3.89 3 3 3.9 3 5L3 19C3 20.1 3.89 21 5 21L10.587891 21C10.239891 20.142 10.039719 19.208422 10.011719 18.232422C9.3947187 17.683422 9 16.893 9 16C9 14.429 10.204234 13.158391 11.740234 13.025391C13.206234 11.183391 15.463 10 18 10C19.062 10 20.073 10.211891 21 10.587891L21 7L17 3L5 3 z M 5 5L15 5L15 9L5 9L5 5 z M 18 12C14.7 12 12 14.7 12 18C12 21.3 14.7 24 18 24C21.3 24 24 21.3 24 18C24 14.7 21.3 12 18 12 z M 20.800781 15.300781L22.199219 16.699219L17.5 21.400391L14.300781 18.199219L15.699219 16.800781L17.5 18.599609L20.800781 15.300781 z" fill="#FFFFFF" />
</svg>