<?xml version="1.0" encoding="utf-8"?>
<svg xmlns="http://www.w3.org/2000/svg" viewBox="0 0 32 32" width="50" height="50">
  <path d="M16 2C14.743378 2 13.85942 2.8933056 13.416016 4L11 4L10 4L5 4L5 29L27 29L27 4L22 4L21 4L18.583984 4C18.14058 2.8933056 17.256622 2 16 2 z M 16 4C16.56503 4 17 4.4349698 17 5L17 6L18 6L20 6L20 8L12 8L12 6L15 6L15 5C15 4.4349698 15.43497 4 16 4 z M 7 6L10 6L10 10L22 10L22 6L25 6L25 27L7 27L7 6 z M 21.292969 14.292969L15 20.585938L11.707031 17.292969L10.292969 18.707031L15 23.414062L22.707031 15.707031L21.292969 14.292969 z" fill="#313649" />
</svg>