<?xml version="1.0" encoding="utf-8"?>
<svg xmlns="http://www.w3.org/2000/svg" viewBox="0 0 24 24" width="50" height="50">
  <path d="M11.964844 2.1269531L7.0917969 7L5.1484375 7L6.21875 5.0429688L8.2636719 3L5.75 3C5.395 3 5.0657188 3.1890937 4.8867188 3.4960938L3.1367188 6.4960938C3.0477188 6.6490937 3 6.823 3 7L3 19C3 20.103 3.897 21 5 21L19 21C20.103 21 21 20.103 21 19L21 7C21 6.823 20.952281 6.6490938 20.863281 6.4960938L19.113281 3.4960938C18.934281 3.1890937 18.605 3 18.25 3L15.666016 3L17.666016 5L17.675781 5L17.689453 5.0234375L18.841797 7L16.835938 7L11.964844 2.1269531 z M 11.964844 4.9550781L14.007812 7L9.921875 7L11.964844 4.9550781 z M 10 9L14 9C14.552 9 15 9.448 15 10C15 10.552 14.552 11 14 11L10 11C9.448 11 9 10.552 9 10C9 9.448 9.448 9 10 9 z" fill="#FFFFFF" />
</svg>