<?xml version="1.0" encoding="UTF-8"?>
<!DOCTYPE svg PUBLIC "-//W3C//DTD SVG 1.1//EN" "http://www.w3.org/Graphics/SVG/1.1/DTD/svg11.dtd">
<!-- Creator: CorelDRAW X7 -->
<svg xmlns="http://www.w3.org/2000/svg" xml:space="preserve" width="50px" height="47px" version="1.1" style="shape-rendering:geometricPrecision; text-rendering:geometricPrecision; image-rendering:optimizeQuality; fill-rule:evenodd; clip-rule:evenodd"
viewBox="0 0 37 35"
 xmlns:xlink="http://www.w3.org/1999/xlink">
 <defs>
  <style type="text/css">
   <![CDATA[
    .fil0 {fill:#FEFEFE}
    .fil1 {fill:white}
   ]]>
  </style>
 </defs>
 <g id="Layer_x0020_1">
  <metadata id="CorelCorpID_0Corel-Layer"/>
  <g id="_2695588150880">
   <g>
    <path class="fil0" d="M8 0c-1,0 -1,0 -1,7 0,8 0,8 1,8 0,0 24,0 24,0 0,0 0,0 0,-7 0,-4 0,-8 0,-8 0,0 1,0 -12,0 -9,0 -12,0 -12,0l0 0zm23 7l0 7 -11 0 -12 0 0 -7 0 -6 12 0 11 0 0 6z"/>
    <path class="fil0" d="M12 2c0,1 0,1 0,1 0,1 -1,1 -2,2 0,0 0,0 0,0 -1,0 -1,0 -1,3 0,2 0,2 1,2 0,0 0,1 0,1 1,0 2,0 2,1 0,0 0,0 0,1l0 0 8 0 8 0 0 0c0,-1 0,-1 0,-1 0,-1 1,-1 2,-1 0,0 0,-1 0,-1 0,0 0,0 0,-2 0,-3 0,-3 0,-3 0,0 0,0 0,0 -2,-1 -2,-1 -2,-2 0,0 0,0 0,-1l-1 0 -7 0 -8 0 0 0 0 0zm15 1c0,2 1,2 2,3l0 0 0 2 0 1 0 1c-1,0 -2,1 -2,1l0 1 -7 0 -7 0 0 -1c-1,-1 -1,-1 -2,-1l0 -1 0 -1 0 -2 0 0c1,-1 1,-2 2,-3 0,0 14,0 14,0l0 0z"/>
    <path class="fil0" d="M19 3c-1,1 -2,2 -3,3 -1,2 0,5 3,5 0,1 1,1 2,0 2,0 3,-2 3,-4 0,-1 -2,-3 -4,-3 0,-1 0,-1 -1,-1l0 0zm0 2c0,0 0,0 0,0 -1,1 -1,1 -1,2 0,0 1,1 2,1 0,0 0,0 0,0 0,1 0,1 0,1 0,0 -1,0 -1,-1 0,0 0,0 0,0 0,0 -1,0 -1,1 0,0 1,1 1,1 0,0 0,0 0,0l1 0 -1 0c-1,0 -1,0 -2,-1 0,-1 0,-1 0,-2 0,0 0,0 0,-1 0,0 1,-1 1,-1 1,0 1,0 1,0 1,0 1,0 0,0l0 0zm2 0c1,0 1,1 1,1 1,1 1,1 1,1 0,1 0,1 -1,2 0,1 -1,1 -2,1l0 0 0 0c0,0 1,0 1,0 0,0 0,-1 0,-1 1,-1 0,-2 -1,-2 0,0 -1,0 -1,0 0,-1 1,-1 1,-1 0,0 0,0 0,0 0,1 0,1 0,1 1,0 1,0 1,0 0,-1 0,-2 0,-2 0,0 -1,0 -1,0l0 0 0 0c0,0 1,0 1,0z"/>
    <path class="fil0" d="M12 7c-1,0 -1,0 -1,0 0,1 0,1 1,1 0,0 0,0 1,0 2,0 2,0 2,0 0,0 0,-1 0,-1 0,0 0,0 -2,0 -1,0 -1,0 -1,0z"/>
    <path class="fil0" d="M25 7c0,0 0,0 0,0 0,1 0,1 0,1 0,0 0,0 1,0 2,0 2,0 2,0 0,0 0,0 0,-1 0,0 0,0 0,0 0,0 0,0 -2,0 -1,0 -1,0 -1,0z"/>
    <path class="fil0" d="M34 15c-1,0 -2,1 -4,3l-4 2 0 0c0,0 -1,0 -1,0 0,0 -3,-1 -6,-1 -5,-1 -5,-1 -6,-1 0,0 -1,1 -3,2 -2,1 -3,2 -3,2 0,0 -1,0 -1,-1 0,0 0,0 -1,0 0,0 -1,1 -2,1 -3,2 -3,2 -3,3 0,0 6,9 6,10 1,0 1,0 3,-2 2,-1 3,-2 3,-2 0,0 0,0 0,-1 0,0 0,0 0,0 0,0 0,0 0,-1l1 0 5 1c5,0 6,0 6,0 1,0 2,-2 7,-6 5,-5 6,-5 6,-6 1,-1 0,-2 -1,-3 -1,0 -2,0 -2,0zm1 1c1,0 1,1 1,2 0,0 -2,1 -6,6 -4,3 -6,5 -6,5 -1,0 -1,0 -3,0 -5,-1 -8,-1 -8,-1 0,0 0,0 -1,0 -1,1 -1,1 -1,1 0,0 -4,-6 -4,-6 0,0 2,-1 4,-2 2,-2 3,-2 3,-2 0,0 2,0 6,1 2,0 5,1 5,1 0,0 1,0 1,1 0,1 0,2 -1,2 -1,0 -2,0 -5,-1 -4,-1 -4,-1 -4,0 0,0 0,0 0,0 0,0 1,0 4,1 5,1 5,1 5,1 2,-1 2,-2 2,-4 0,0 0,0 3,-2 2,-2 4,-3 4,-3 0,0 1,0 1,0l0 0zm-27 11c2,2 3,4 3,4 0,0 -4,2 -4,2 0,0 -6,-8 -6,-8 0,0 4,-3 4,-3 0,0 2,2 3,5l0 0z"/>
   </g>
  </g>
  <path class="fil1" d="M1 25c0,0 6,8 6,8 0,0 4,-2 4,-2l-3 -4 -3 -5c0,0 -4,3 -4,3z"/>
  <path class="fil1" d="M7 23c0,0 4,6 4,6 0,0 0,0 1,-1 2,-1 2,0 9,1 3,0 2,1 9,-5 5,-5 8,-7 5,-8 0,0 -1,0 -1,0l-7 5c0,2 0,3 -2,4 0,0 0,0 -5,-1 -3,0 -5,-1 -4,-1l9 1c1,0 1,-3 0,-3l-11 -2 -7 4z"/>
  <path class="fil1" d="M11 29c0,0 -4,-6 -4,-6l7 -4 11 2c1,0 1,3 0,3l-9 -1c-1,0 1,1 4,1 5,1 5,1 5,1 2,-1 2,-2 2,-4l7 -5c0,0 1,0 1,0 3,1 0,3 -5,8 -7,6 -6,5 -9,5 -7,-1 -7,-2 -9,-1 -1,1 -1,1 -1,1zm-10 -4c0,0 4,-3 4,-3l3 5 3 4c0,0 -4,2 -4,2 0,0 -6,-8 -6,-8zm11 5c-1,0 -1,0 0,-1l1 0c1,0 10,2 11,1l13 -12c1,-2 -1,-4 -3,-3l-8 5 -7 -1c-6,-2 -5,-2 -9,1 -4,2 -3,2 -4,1 0,-1 0,0 -3,1 -3,2 -3,2 -3,3 0,0 6,9 6,10 1,0 1,0 3,-2 3,-2 3,-2 3,-3z"/>
  <path class="fil1" d="M8 14l12 0 11 0 0 -7 0 -6 -11 0 -12 0 0 6 0 7zm4 -2c0,-1 -1,-1 -2,-1 0,0 0,-1 0,-1 -1,0 -1,0 -1,-2 0,-3 0,-3 1,-3 0,0 0,0 0,0 1,-1 2,-1 2,-2 0,0 0,0 0,-1l0 0 8 0 7 0 1 0c0,1 0,1 0,1 0,1 0,1 2,2 0,0 0,0 0,0 0,0 0,0 0,3 0,2 0,2 0,2 0,0 0,1 0,1 -1,0 -2,0 -2,1 0,0 0,0 0,1l0 0 -8 0 -8 0 0 0c0,-1 0,-1 0,-1z"/>
  <path class="fil1" d="M13 12l7 0 7 0 0 -1c0,0 1,-1 2,-1l0 -1 0 -1 0 -2 0 0c-1,-1 -2,-1 -2,-3 0,0 -14,0 -14,0 -1,1 -1,2 -2,3l0 0 0 2 0 1 0 1c1,0 1,0 2,1l0 1zm6 -1c-3,0 -4,-3 -3,-5 1,-1 2,-2 3,-3 1,0 1,0 1,1 2,0 4,2 4,3 0,2 -1,4 -3,4 -1,1 -2,1 -2,0zm-6 -3c-1,0 -1,0 -1,0 -1,0 -1,0 -1,-1 0,0 0,0 1,0 0,0 0,0 1,0 2,0 2,0 2,0 0,0 0,1 0,1 0,0 0,0 -2,0zm12 -1c0,0 0,0 0,0 0,0 0,0 1,0 2,0 2,0 2,0 0,0 0,0 0,0 0,1 0,1 0,1 0,0 0,0 -2,0 -1,0 -1,0 -1,0 0,0 0,0 0,-1z"/>
  <path class="fil1" d="M11 9l0 -1 0 -2 0 0c1,-1 1,-2 2,-3 0,0 14,0 14,0 0,2 1,2 2,3l0 0 0 2 0 1 0 1c-1,0 -2,1 -2,1l0 1 -7 0 -7 0 0 -1c-1,-1 -1,-1 -2,-1l0 -1zm1 4l8 0 8 0 0 0c0,-1 0,-1 0,-1 0,-1 1,-1 2,-1 0,0 0,-1 0,-1 0,0 0,0 0,-2 0,-3 0,-3 0,-3 0,0 0,0 0,0 -2,-1 -2,-1 -2,-2 0,0 0,0 0,-1l-1 0 -7 0 -8 0 0 0c0,1 0,1 0,1 0,1 -1,1 -2,2 0,0 0,0 0,0 -1,0 -1,0 -1,3 0,2 0,2 1,2 0,0 0,1 0,1 1,0 2,0 2,1 0,0 0,0 0,1l0 0z"/>
  <path class="fil1" d="M8 7l0 -6 12 0 11 0 0 6 0 7 -11 0 -12 0 0 -7zm0 -7c-1,0 -1,0 -1,7 0,8 0,8 1,8 0,0 24,0 24,0 0,0 0,0 0,-7 0,-4 0,-8 0,-8 0,0 1,0 -12,0 -9,0 -12,0 -12,0z"/>
  <path class="fil1" d="M13 7c-1,0 -1,0 -1,0 -1,0 -1,0 -1,0 0,1 0,1 1,1 0,0 0,0 1,0 2,0 2,0 2,0 0,0 0,-1 0,-1 0,0 0,0 -2,0z"/>
  <path class="fil1" d="M25 7c0,0 0,0 0,0 0,1 0,1 0,1 0,0 0,0 1,0 2,0 2,0 2,0 0,0 0,0 0,-1 0,0 0,0 0,0 0,0 0,0 -2,0 -1,0 -1,0 -1,0z"/>
  <path class="fil1" d="M23 7c0,0 0,0 -1,-1 0,0 0,-1 -1,-1 0,0 -1,0 -1,0l0 0 0 0 1 0c0,0 0,1 0,2 0,0 0,0 -1,0 0,0 0,0 0,-1 0,0 0,0 0,0 0,0 -1,0 -1,1 0,0 1,0 1,0 1,0 2,1 1,2 0,0 0,1 0,1l-1 0 0 0 0 0c1,0 2,0 2,-1 1,-1 1,-1 1,-2z"/>
  <path class="fil1" d="M22 6c1,1 1,1 1,1 0,1 0,1 -1,2 0,1 -1,1 -2,1l0 0 0 0 1 0c0,0 0,-1 0,-1 1,-1 0,-2 -1,-2 0,0 -1,0 -1,0 0,-1 1,-1 1,-1 0,0 0,0 0,0 0,1 0,1 0,1 1,0 1,0 1,0 0,-1 0,-2 0,-2l-1 0 0 0 0 0c0,0 1,0 1,0 1,0 1,1 1,1zm-3 -1c-1,1 -1,1 -1,2 0,0 1,1 2,1 0,0 0,0 0,0 0,1 0,1 0,1 0,0 -1,0 -1,-1 0,0 0,0 0,0 0,0 -1,0 -1,1 0,0 1,1 1,1 0,0 0,0 0,0l1 0 -1 0c-1,0 -1,0 -2,-1 0,-1 0,-1 0,-2 0,0 0,0 0,-1 0,0 1,-1 1,-1 1,0 1,0 1,0 1,0 1,0 0,0l0 0zm-3 1c-1,2 0,5 3,5 0,1 1,1 2,0 2,0 3,-2 3,-4 0,-1 -2,-3 -4,-3 0,-1 0,-1 -1,-1 -1,1 -2,2 -3,3z"/>
  <path class="fil1" d="M20 8c-1,0 -2,-1 -2,-1 0,-1 0,-1 1,-2l0 0c1,0 1,0 0,0 0,0 0,0 -1,0 0,0 -1,1 -1,1 0,1 0,1 0,1 0,1 0,1 0,2 1,1 1,1 2,1l1 0 -1 0c0,0 0,0 0,0 0,0 -1,-1 -1,-1 0,-1 1,-1 1,-1 0,0 0,0 0,0 0,1 1,1 1,1 0,0 0,0 0,-1 0,0 0,0 0,0z"/>
 </g>
</svg>
