<svg xmlns="http://www.w3.org/2000/svg" viewBox="0 0 50 50">
  <path d="M26 4.0234375L26 7C26 7.553 25.552 8 25 8C24.448 8 24 7.553 24 7L24 4.0292969C23.355 4.0562969 22.706781 4.1035469 22.050781 4.1855469C19.313781 4.5275469 16.71475 5.3771875 14.34375 6.6171875L15.462891 8.5800781C15.738891 9.0590781 15.573703 9.6693125 15.095703 9.9453125C14.937703 10.036312 14.766656 10.080078 14.597656 10.080078C14.251656 10.080078 13.915469 9.9000781 13.730469 9.5800781L12.611328 7.6171875C9.7953281 9.4171875 7.3938437 11.817625 5.5898438 14.640625C5.6008438 14.646625 5.6120469 14.644391 5.6230469 14.650391L7.5957031 15.775391C8.0747031 16.051391 8.2388906 16.664578 7.9628906 17.142578C7.7768906 17.462578 7.4417031 17.642578 7.0957031 17.642578C6.9267031 17.642578 6.7537031 17.598813 6.5957031 17.507812L4.6230469 16.382812C4.6110469 16.375812 4.60475 16.363469 4.59375 16.355469C3.69575 18.075469 2.9984062 19.916328 2.5664062 21.861328C2.2594062 23.245328 2.0843906 24.628 2.0253906 26L5 26C5.552 26 6 26.447 6 27C6 27.553 5.552 28 5 28L2.03125 28C2.17825 31.42 3.0764844 34.725031 4.6464844 37.707031L6.5839844 36.638672C7.0589844 36.358672 7.673125 36.520141 7.953125 36.994141C8.233125 37.471141 8.0746563 38.083281 7.5976562 38.363281L5.6542969 39.433594C6.3942969 40.582594 7.2395 41.673453 8.1875 42.689453C8.3735 42.888453 8.6391094 43 8.9121094 43L12 43L12 41C12 39.895 12.895 39 14 39L36 39C37.105 39 38 39.895 38 41L38 43L41.087891 43C41.360891 43 41.6255 42.888453 41.8125 42.689453C42.7655 41.668453 43.613516 40.572969 44.353516 39.417969L42.439453 38.238281C41.962453 37.959281 41.803984 37.345141 42.083984 36.869141C42.363984 36.394141 42.976125 36.234625 43.453125 36.515625L45.357422 37.689453C46.915422 34.712453 47.805125 31.412953 47.953125 28.001953L45 28.001953C44.448 27.999953 44 27.553 44 27C44 26.447 44.448 26 45 26L47.972656 26C47.823656 22.548 46.891859 19.301297 45.380859 16.404297L43.128906 17.697266C42.970906 17.788266 42.799859 17.830078 42.630859 17.830078C42.284859 17.830078 41.948672 17.651078 41.763672 17.330078C41.487672 16.851078 41.650906 16.240844 42.128906 15.964844L44.378906 14.673828C42.550906 11.809828 40.112234 9.3804531 37.240234 7.5644531L36.001953 9.5644531C35.815953 9.8854531 35.480766 10.064453 35.134766 10.064453C34.965766 10.064453 34.793719 10.020688 34.636719 9.9296875C34.157719 9.6536875 33.993531 9.0424531 34.269531 8.5644531L35.505859 6.5703125C32.629859 5.0863125 29.417 4.1704375 26 4.0234375 z M 38.775391 18.642578L39 19L30.923828 26.095703C30.698659 24.624009 29.939952 23.324406 28.845703 22.40625L38.775391 18.642578 z M 25 23C25.53 23 26.033094 23.108875 26.496094 23.296875L26.503906 23.294922C27.971693 23.885759 29 25.312597 29 27C29 27.30189 28.962749 27.592749 28.900391 27.875L28.896484 27.876953C28.796234 28.323203 28.621797 28.740734 28.386719 29.117188C28.288943 29.273766 28.174424 29.419453 28.056641 29.560547C28.023062 29.600664 27.992143 29.642899 27.957031 29.681641C27.844931 29.805741 27.722381 29.918138 27.595703 30.027344C27.543082 30.072435 27.490518 30.117822 27.435547 30.160156C27.312948 30.255181 27.184153 30.343382 27.050781 30.423828C26.971354 30.47127 26.889583 30.514678 26.806641 30.556641C26.687483 30.617579 26.567149 30.675691 26.441406 30.724609C26.315472 30.772946 26.184604 30.810035 26.052734 30.845703C25.952011 30.873351 25.853772 30.906007 25.75 30.925781C25.506823 30.971337 25.257205 31 25 31C22.789 31 21 29.208 21 27C21 24.792 22.789 23 25 23 z M 14.998047 41C14.446047 41 13.998047 41.447 13.998047 42L13.998047 44.998047C13.998047 45.551047 14.446047 45.998047 14.998047 45.998047L35.001953 45.998047C35.553953 45.998047 36.001953 45.551047 36.001953 44.998047L36.001953 42C36.001953 41.447 35.553953 41 35.001953 41L14.998047 41 z" fill="#FFFFFF" />
</svg>