<?xml version="1.0" encoding="utf-8"?>
<svg xmlns="http://www.w3.org/2000/svg" viewBox="0 0 32 32" width="50" height="50">
  <path d="M4 5L4 27L28 27L28 5 Z M 6 7L26 7L26 25L6 25 Z M 8 10L8 12L10 12L10 10 Z M 11 10L11 12L15 12L15 10 Z M 17 10L17 12L19 12L19 10 Z M 20 10L20 12L24 12L24 10 Z M 8 15L8 17L10 17L10 15 Z M 11 15L11 17L15 17L15 15 Z M 17 15L17 17L19 17L19 15 Z M 20 15L20 17L24 17L24 15 Z M 8 20L8 22L10 22L10 20 Z M 11 20L11 22L15 22L15 20 Z M 17 20L17 22L19 22L19 20 Z M 20 20L20 22L24 22L24 20Z" fill="#313649" />
</svg>