<svg xmlns="http://www.w3.org/2000/svg" viewBox="0 0 50 50">
  <path d="M20 1C18.897 1 18 1.897 18 3L18 8C18 9.103 18.897 10 20 10L30 10C31.103 10 32 9.103 32 8L32 3C32 1.897 31.103 1 30 1L20 1 z M 9 3C7.346 3 6 4.346 6 6L6 45C6 46.654 7.346 48 9 48L41 48C42.654 48 44 46.654 44 45L44 6C44 4.346 42.654 3 41 3L34 3L34 8L39 8L39 43L11 43L11 8L16 8L16 3L9 3 z M 16 14L16 16L34 16L34 14L16 14 z M 16 19L16 21L34 21L34 19L16 19 z M 16 24L16 26L24 26L24 24L16 24 z M 34 29C32.895 29 32 29.895 32 31C32 31.231869 32.046654 31.451156 32.119141 31.658203L28.365234 36.037109C28.246261 36.015064 28.125381 36 28 36C27.821821 36 27.652668 36.030549 27.488281 36.074219L23.925781 32.511719C23.969451 32.347332 24 32.178179 24 32C24 30.895 23.105 30 22 30C20.895 30 20 30.895 20 32C20 32.178179 20.030549 32.347332 20.074219 32.511719L16.511719 36.074219C16.347332 36.030549 16.178179 36 16 36C14.895 36 14 36.895 14 38C14 39.105 14.895 40 16 40C17.105 40 18 39.105 18 38C18 37.821821 17.969451 37.652668 17.925781 37.488281L21.488281 33.925781C21.652668 33.969451 21.821821 34 22 34C22.178179 34 22.347332 33.969451 22.511719 33.925781L26.074219 37.488281C26.030549 37.652668 26 37.821821 26 38C26 39.105 26.895 40 28 40C29.105 40 30 39.105 30 38C30 37.768131 29.953346 37.548844 29.880859 37.341797L33.634766 32.962891C33.753739 32.984936 33.874619 33 34 33C35.105 33 36 32.105 36 31C36 29.895 35.105 29 34 29 z" fill="#FFFFFF" />
</svg>