<?xml version="1.0" encoding="UTF-8"?>
<!DOCTYPE svg PUBLIC "-//W3C//DTD SVG 1.1//EN" "http://www.w3.org/Graphics/SVG/1.1/DTD/svg11.dtd">
<!-- Creator: CorelDRAW X7 -->
<svg xmlns="http://www.w3.org/2000/svg" xml:space="preserve" width="51px" height="48px" version="1.1" style="shape-rendering:geometricPrecision; text-rendering:geometricPrecision; image-rendering:optimizeQuality; fill-rule:evenodd; clip-rule:evenodd"
viewBox="0 0 39 37"
 xmlns:xlink="http://www.w3.org/1999/xlink">
 <defs>
  <style type="text/css">
   <![CDATA[
    .str0 {stroke:#332C2B;stroke-width:0.691864}
    .fil0 {fill:#FEFEFE}
    .fil1 {fill:white}
   ]]>
  </style>
 </defs>
 <g id="Layer_x0020_1">
  <metadata id="CorelCorpID_0Corel-Layer"/>
  <g id="_2695585684160">
   <g>
    <path class="fil0 str0" d="M8 0c0,1 0,0 0,8 0,8 0,8 0,8 0,0 25,0 25,0 1,0 1,0 1,-8 0,-4 0,-7 0,-7 0,-1 0,-1 -13,-1 -9,0 -13,0 -13,0l0 0zm25 8l0 7 -12 0 -12 0 0 -7 0 -6 12 0 12 0 0 6z"/>
    <path class="fil0 str0" d="M13 3c-1,0 -1,0 -1,0 0,1 0,2 -1,2 -1,0 -1,0 -1,0 0,0 0,1 0,3 0,3 0,3 0,3 0,0 0,0 1,0 1,0 1,1 1,2 0,0 0,0 0,0l1 1 8 0 8 0 0 -1c0,0 0,0 0,0 0,-1 1,-2 2,-2 0,0 0,0 0,0 1,0 1,0 1,-3 0,-3 0,-3 -1,-3 0,0 0,0 0,0 -1,0 -2,-1 -2,-2 0,0 0,0 0,0l0 0 -8 0 -8 0 0 0 0 0zm15 1c0,1 1,2 2,2l0 0 0 2 0 2 0 0c-1,1 -2,1 -2,2l0 0 -7 0 -8 0 0 0c0,-1 -1,-1 -1,-2l-1 0 0 -2 0 -2 1 0c1,0 1,-1 1,-2 0,0 15,0 15,0l0 0z"/>
    <path class="fil0 str0" d="M20 4c-1,0 -2,1 -3,2 -1,3 0,5 3,6 0,0 1,0 2,0 2,-1 3,-2 3,-4 0,-2 -1,-4 -3,-4 -1,0 -1,0 -2,0l0 0zm0 1c0,0 0,1 0,1 -1,0 -1,1 -1,1 0,1 1,2 2,2 0,0 0,0 0,0 0,0 0,1 0,1 0,0 -1,-1 -1,-1 0,0 0,0 0,0 0,-1 -1,0 -1,0 0,1 1,1 1,2 0,0 0,0 0,0l1 0 -1 0c-1,0 -1,-1 -2,-2 0,0 0,0 0,-1 0,-1 0,-1 0,-1 0,-1 1,-1 1,-1 0,-1 1,-1 1,-1 1,0 1,0 0,0l0 0zm2 0c1,1 1,1 1,2 1,0 1,0 1,1 0,1 0,1 -1,1 0,1 -1,2 -2,2l0 0 0 0c0,0 1,-1 1,-1 0,0 0,0 0,0 1,-1 0,-2 -1,-2 0,-1 -1,-1 -1,-1 0,0 1,0 1,0 0,0 0,0 0,0 0,0 0,0 0,0 1,1 1,1 1,0 0,0 0,-1 0,-1 0,0 -1,-1 -1,-1l0 0 0 0c1,0 1,0 1,0z"/>
    <path class="fil0 str0" d="M12 8c0,0 0,0 0,0 0,0 0,0 0,0 0,1 0,1 2,1 2,0 2,0 2,-1 0,0 0,0 0,0 0,-1 -1,-1 -2,-1 -2,0 -2,0 -2,1z"/>
    <path class="fil0 str0" d="M26 8c0,0 0,0 0,0 0,0 0,0 0,0 0,1 0,1 2,1 1,0 1,0 1,-1 0,0 1,0 1,0 0,0 -1,0 -1,0 0,-1 0,-1 -1,-1 -2,0 -2,0 -2,1z"/>
    <path class="fil0 str0" d="M35 16c0,0 -1,0 -4,3l-4 2 0 0c0,0 -1,0 -1,0 0,0 -3,-1 -6,-1 -5,-1 -5,-2 -6,-1 0,0 -2,1 -4,2 -1,1 -3,2 -3,2 0,0 0,0 0,-1 -1,0 -1,0 -1,0 0,0 -1,1 -3,2 -3,1 -3,1 -3,2 0,0 7,10 7,10 0,1 0,0 3,-1 2,-1 3,-2 3,-2 0,0 0,-1 0,-1 -1,-1 -1,-1 -1,-1 0,0 1,0 1,0l1 -1 5 1c6,1 6,1 6,0 1,0 2,-1 7,-5 6,-6 6,-6 6,-7 1,-1 1,-3 -1,-3 0,0 -1,-1 -2,0zm2 1c0,0 1,1 0,2 0,0 -1,1 -6,6 -3,3 -6,5 -6,5 -1,1 -1,1 -3,0 -5,-1 -8,-1 -8,-1 0,0 -1,0 -1,1 -1,0 -1,0 -1,0 -1,0 -4,-6 -4,-6 0,0 1,-1 3,-2 3,-2 4,-2 4,-2 0,0 2,0 6,1 2,0 5,1 5,1 0,0 1,0 1,1 0,1 0,2 -1,2 -1,0 -2,0 -5,-1 -4,-1 -4,-1 -4,0 0,0 0,0 0,0 0,1 1,1 4,1 5,1 5,1 6,1 1,-1 1,-2 1,-3 0,-1 0,-1 4,-3 2,-2 3,-3 4,-3 0,0 0,0 1,0l0 0zm-28 11c1,2 2,4 2,4 0,0 -3,3 -4,3 0,0 -5,-9 -5,-9 0,0 4,-3 4,-3 0,0 1,2 3,5l0 0z"/>
   </g>
  </g>
  <path class="fil1 str0" d="M2 26c0,0 5,9 5,9 1,0 4,-3 4,-3l-2 -4 -3 -5c0,0 -4,3 -4,3z"/>
  <path class="fil1 str0" d="M8 24c0,0 3,6 4,6 0,0 0,0 1,0 1,-1 1,-1 9,0 3,1 2,1 9,-5 5,-5 8,-7 6,-8 -1,0 -1,0 -1,0l-8 6c0,1 0,2 -1,3 -1,0 -1,0 -6,-1 -3,0 -5,0 -4,-1l9 1c2,0 1,-3 0,-3l-11 -2 -7 4z"/>
  <path class="fil1 str0" d="M12 30c-1,0 -4,-6 -4,-6l7 -4 11 2c1,0 2,3 0,3l-9 -1c-1,1 1,1 4,1 5,1 5,1 6,1 1,-1 1,-2 1,-3l8 -6c0,0 0,0 1,0 2,1 -1,3 -6,8 -7,6 -6,6 -9,5 -8,-1 -8,-1 -9,0 -1,0 -1,0 -1,0zm-10 -4c0,0 4,-3 4,-3l3 5 2 4c0,0 -3,3 -4,3 0,0 -5,-9 -5,-9zm11 6c-1,-1 -1,-1 0,-1l1 -1c1,0 10,2 11,1l13 -12c2,-2 -1,-4 -3,-3l-8 5 -7 -1c-6,-2 -5,-2 -10,1 -3,2 -3,2 -3,1 -1,-1 -1,0 -4,2 -3,1 -3,1 -3,2 0,0 7,10 7,10 0,1 0,0 3,-1 3,-2 3,-2 3,-3z"/>
  <path class="fil1 str0" d="M9 15l12 0 12 0 0 -7 0 -6 -12 0 -12 0 0 6 0 7zm3 -2c0,-1 0,-2 -1,-2 -1,0 -1,0 -1,0 0,0 0,0 0,-3 0,-2 0,-3 0,-3 0,0 0,0 1,0 1,0 1,-1 1,-2 0,0 0,0 1,0l0 0 8 0 8 0 0 0c0,0 0,0 0,0 0,1 1,2 2,2 0,0 0,0 0,0 1,0 1,0 1,3 0,3 0,3 -1,3 0,0 0,0 0,0 -1,0 -2,1 -2,2 0,0 0,0 0,0l0 1 -8 0 -8 0 -1 -1c0,0 0,0 0,0z"/>
  <path class="fil1 str0" d="M13 12l8 0 7 0 0 0c0,-1 1,-1 2,-2l0 0 0 -2 0 -2 0 0c-1,0 -2,-1 -2,-2 0,0 -15,0 -15,0 0,1 0,2 -1,2l-1 0 0 2 0 2 1 0c0,1 1,1 1,2l0 0zm7 0c-3,-1 -4,-3 -3,-6 1,-1 2,-2 3,-2 1,0 1,0 2,0 2,0 3,2 3,4 0,2 -1,3 -3,4 -1,0 -2,0 -2,0zm-6 -3c-2,0 -2,0 -2,-1 0,0 0,0 0,0 0,0 0,0 0,0 0,-1 0,-1 2,-1 1,0 2,0 2,1 0,0 0,0 0,0 0,1 0,1 -2,1zm12 -1c0,0 0,0 0,0 0,-1 0,-1 2,-1 1,0 1,0 1,1 0,0 1,0 1,0 0,0 -1,0 -1,0 0,1 0,1 -1,1 -2,0 -2,0 -2,-1 0,0 0,0 0,0z"/>
  <path class="fil1 str0" d="M11 10l0 -2 0 -2 1 0c1,0 1,-1 1,-2 0,0 15,0 15,0 0,1 1,2 2,2l0 0 0 2 0 2 0 0c-1,1 -2,1 -2,2l0 0 -7 0 -8 0 0 0c0,-1 -1,-1 -1,-2l-1 0zm2 4l8 0 8 0 0 -1c0,0 0,0 0,0 0,-1 1,-2 2,-2 0,0 0,0 0,0 1,0 1,0 1,-3 0,-3 0,-3 -1,-3 0,0 0,0 0,0 -1,0 -2,-1 -2,-2 0,0 0,0 0,0l0 0 -8 0 -8 0 0 0c-1,0 -1,0 -1,0 0,1 0,2 -1,2 -1,0 -1,0 -1,0 0,0 0,1 0,3 0,3 0,3 0,3 0,0 0,0 1,0 1,0 1,1 1,2 0,0 0,0 0,0l1 1z"/>
  <path class="fil1 str0" d="M9 8l0 -6 12 0 12 0 0 6 0 7 -12 0 -12 0 0 -7zm-1 -8c0,1 0,0 0,8 0,8 0,8 0,8 0,0 25,0 25,0 1,0 1,0 1,-8 0,-4 0,-7 0,-7 0,-1 0,-1 -13,-1 -9,0 -13,0 -13,0z"/>
  <path class="fil1 str0" d="M14 7c-2,0 -2,0 -2,1 0,0 0,0 0,0 0,0 0,0 0,0 0,1 0,1 2,1 2,0 2,0 2,-1 0,0 0,0 0,0 0,-1 -1,-1 -2,-1z"/>
  <path class="fil1 str0" d="M26 8c0,0 0,0 0,0 0,0 0,0 0,0 0,1 0,1 2,1 1,0 1,0 1,-1 0,0 1,0 1,0 0,0 -1,0 -1,0 0,-1 0,-1 -1,-1 -2,0 -2,0 -2,1z"/>
  <path class="fil1 str0" d="M24 8c0,-1 0,-1 -1,-1 0,-1 0,-1 -1,-2 0,0 0,0 -1,0l0 0 0 0 1 1c0,0 0,1 0,1 0,1 0,1 -1,0 0,0 0,0 0,0 0,0 0,0 0,0 0,0 -1,0 -1,0 0,0 1,0 1,1 1,0 2,1 1,2 0,0 0,0 0,0l-1 1 0 0 0 0c1,0 2,-1 2,-2 1,0 1,0 1,-1z"/>
  <path class="fil1 str0" d="M23 7c1,0 1,0 1,1 0,1 0,1 -1,1 0,1 -1,2 -2,2l0 0 0 0 1 -1c0,0 0,0 0,0 1,-1 0,-2 -1,-2 0,-1 -1,-1 -1,-1 0,0 1,0 1,0 0,0 0,0 0,0 0,0 0,0 0,0 1,1 1,1 1,0 0,0 0,-1 0,-1l-1 -1 0 0 0 0c1,0 1,0 1,0 1,1 1,1 1,2zm-3 -1c-1,0 -1,1 -1,1 0,1 1,2 2,2 0,0 0,0 0,0 0,0 0,1 0,1 0,0 -1,-1 -1,-1 0,0 0,0 0,0 0,-1 -1,0 -1,0 0,1 1,1 1,2 0,0 0,0 0,0l1 0 -1 0c-1,0 -1,-1 -2,-2 0,0 0,0 0,-1 0,-1 0,-1 0,-1 0,-1 1,-1 1,-1 0,-1 1,-1 1,-1 1,0 1,0 0,0l0 1zm-3 0c-1,3 0,5 3,6 0,0 1,0 2,0 2,-1 3,-2 3,-4 0,-2 -1,-4 -3,-4 -1,0 -1,0 -2,0 -1,0 -2,1 -3,2z"/>
  <path class="fil1 str0" d="M21 9c-1,0 -2,-1 -2,-2 0,0 0,-1 1,-1l0 -1c1,0 1,0 0,0 0,0 -1,0 -1,1 0,0 -1,0 -1,1 0,0 0,0 0,1 0,1 0,1 0,1 1,1 1,2 2,2l1 0 -1 0c0,0 0,0 0,0 0,-1 -1,-1 -1,-2 0,0 1,-1 1,0 0,0 0,0 0,0 0,0 1,1 1,1 0,0 0,-1 0,-1 0,0 0,0 0,0z"/>
 </g>
</svg>
