<?xml version="1.0" encoding="UTF-8"?>
<!DOCTYPE svg PUBLIC "-//W3C//DTD SVG 1.1//EN" "http://www.w3.org/Graphics/SVG/1.1/DTD/svg11.dtd">
<!-- Creator: CorelDRAW X7 -->
<svg xmlns="http://www.w3.org/2000/svg" xml:space="preserve" width="50px" height="47px" version="1.1" style="shape-rendering:geometricPrecision; text-rendering:geometricPrecision; image-rendering:optimizeQuality; fill-rule:evenodd; clip-rule:evenodd"
viewBox="0 0 50 47"
 xmlns:xlink="http://www.w3.org/1999/xlink">
 <defs>
  <style type="text/css">
   <![CDATA[
    .fil0 {fill:none}
    .fil1 {fill:white}
   ]]>
  </style>
 </defs>
 <g id="Layer_x0020_1">
  <metadata id="CorelCorpID_0Corel-Layer"/>
  <g id="_2695184720096">
   <g>
    <path class="fil0" d="M7 0c-1,0 -2,1 -3,2 0,0 -1,3 -2,6l-2 5 0 12c0,9 0,13 0,13 0,1 1,2 2,2 1,1 0,1 12,1l11 0 1 1c1,2 4,3 6,4 2,1 5,1 8,0 3,0 6,-3 8,-6 2,-3 2,-6 2,-9 -1,-4 -4,-8 -8,-10l-1 0 0 -4 0 -4 -2 -5c-1,-3 -2,-6 -2,-6 -1,-1 -1,-1 -2,-2l-1 0 -13 0c-12,0 -14,0 -14,0zm9 2c0,0 0,2 -1,5 0,3 -1,5 -1,5 0,0 -2,0 -6,0 -5,0 -5,0 -5,0 0,0 3,-9 3,-9 0,0 1,-1 1,-1 1,0 9,0 9,0zm8 5c0,2 1,5 1,5l0 0 -5 0 -4 0 0 0c0,0 1,-3 1,-5 1,-3 1,-5 1,-5l0 0 2 0 3 0 1 5zm10 -5c0,0 1,0 1,1 0,0 4,9 4,9 0,0 -3,0 -6,0l-6 0 0 0c0,0 -1,-2 -1,-5 -1,-2 -1,-5 -1,-5l0 0 4 0c4,0 5,0 5,0zm-20 17l0 5 1 0c0,0 0,0 0,0 0,0 3,-1 6,-2 4,-2 5,-2 5,-2l1 -1 0 -2 0 -3 6 0 6 0 0 3 0 3 -1 0c-1,0 -2,0 -4,0 -2,0 -5,2 -7,4 -2,2 -3,4 -4,7 0,1 0,3 0,4 0,1 1,3 1,3l0 1 -10 0c-7,0 -11,0 -11,0 0,0 -1,-1 -1,-1 0,-1 0,-1 0,-12l0 -12 6 0 6 0 0 5zm11 -3l0 2 -4 2c-3,1 -5,2 -5,2 0,0 0,0 0,-4l0 -4 4 0 5 0 0 2zm13 6c2,0 5,1 7,3 2,2 3,5 3,7 0,6 -3,11 -9,13 -1,0 -4,0 -5,0 -5,-1 -9,-6 -9,-12 0,-7 6,-12 13,-11z"/>
    <path class="fil0" d="M5 29c0,0 0,0 -1,1 0,0 0,1 0,3 0,3 0,3 1,3 0,0 0,1 0,1 0,0 2,0 6,0 6,0 6,0 6,-1 0,0 0,-1 0,-3l0 -4 0 0c0,0 0,0 -1,0 0,0 -10,0 -11,0zm10 4l0 2 -4 0 -5 0 0 -2 0 -2 5 0 4 0 0 2z"/>
    <path class="fil0" d="M35 30l-4 4 0 2c-1,3 -1,3 -1,3 0,1 0,1 1,1 0,0 1,0 2,-1l3 -1 3 -3c3,-3 4,-4 4,-4 0,-1 0,-1 -2,-3l-1 -1 -1 0 0 0 -4 3zm6 1c0,0 -2,1 -3,2l-3 3 -1 -1 0 0 2 -3 3 -3 1 1c0,0 1,1 1,1zm-8 6c0,0 0,0 0,0l-1 0 0 0c0,0 0,0 1,0l0 -1 0 1c0,0 0,0 0,0z"/>
   </g>
  </g>
  <g id="_2695184721248">
   <path class="fil0" d="M7 0c-1,0 -2,1 -3,2 0,0 -1,3 -2,6l-2 5 0 12c0,9 0,13 0,13 0,1 1,2 2,2 1,1 0,1 12,1l11 0 1 1c1,2 4,3 6,4 2,1 5,1 8,0 3,0 6,-3 8,-6 2,-3 2,-6 2,-9 -1,-4 -4,-8 -8,-10l-1 0 0 -4 0 -4 -2 -5c-1,-3 -2,-6 -2,-6 -1,-1 -1,-1 -2,-2l-1 0 -13 0c-12,0 -14,0 -14,0zm9 2c0,0 0,2 -1,5 0,3 -1,5 -1,5 0,0 -2,0 -6,0 -5,0 -5,0 -5,0 0,0 3,-9 3,-9 0,0 1,-1 1,-1 1,0 9,0 9,0zm8 5c0,2 1,5 1,5l0 0 -5 0 -4 0 0 0c0,0 1,-3 1,-5 1,-3 1,-5 1,-5l0 0 2 0 3 0 1 5zm10 -5c0,0 1,0 1,1 0,0 4,9 4,9 0,0 -3,0 -6,0l-6 0 0 0c0,0 -1,-2 -1,-5 -1,-2 -1,-5 -1,-5l0 0 4 0c4,0 5,0 5,0zm-20 17l0 5 1 0c0,0 0,0 0,0 0,0 3,-1 6,-2 4,-2 5,-2 5,-2l1 -1 0 -2 0 -3 6 0 6 0 0 3 0 3 -1 0c-1,0 -2,0 -4,0 -2,0 -5,2 -7,4 -2,2 -3,4 -4,7 0,1 0,3 0,4 0,1 1,3 1,3l0 1 -10 0c-7,0 -11,0 -11,0 0,0 -1,-1 -1,-1 0,-1 0,-1 0,-12l0 -12 6 0 6 0 0 5zm11 -3l0 2 -4 2c-3,1 -5,2 -5,2 0,0 0,0 0,-4l0 -4 4 0 5 0 0 2zm13 6c2,0 5,1 7,3 2,2 3,5 3,7 0,6 -3,11 -9,13 -1,0 -4,0 -5,0 -5,-1 -9,-6 -9,-12 0,-7 6,-12 13,-11z"/>
   <path class="fil0" d="M5 29c0,0 0,0 -1,1 0,0 0,1 0,3 0,3 0,3 1,3 0,0 0,1 0,1 0,0 2,0 6,0 6,0 6,0 6,-1 0,0 0,-1 0,-3l0 -4 0 0c0,0 0,0 -1,0 0,0 -10,0 -11,0zm10 4l0 2 -4 0 -5 0 0 -2 0 -2 5 0 4 0 0 2z"/>
   <path class="fil0" d="M35 30l-4 4 0 2c-1,3 -1,3 -1,3 0,1 0,1 1,1 0,0 1,0 2,-1l3 -1 3 -3c3,-3 4,-4 4,-4 0,-1 0,-1 -2,-3l-1 -1 -1 0 0 0 -4 3zm6 1c0,0 -2,1 -3,2l-3 3 -1 -1 0 0 2 -3 3 -3 1 1c0,0 1,1 1,1zm-8 6c0,0 0,0 0,0l-1 0 0 0c0,0 0,0 1,0l0 -1 0 1c0,0 0,0 0,0z"/>
  </g>
  <path class="fil1" d="M14 19l0 -5 -6 0 -6 0 0 12c0,11 0,11 0,12 0,0 1,1 1,1 0,0 4,0 11,0l10 0 0 -1c0,0 -1,-2 -1,-3 0,-1 0,-3 0,-4 1,-3 2,-5 4,-7 2,-2 5,-4 7,-4 2,0 3,0 4,0l1 0 0 -3 0 -3 -6 0 -6 0 0 3 0 2 -1 1c0,0 -1,0 -5,2 -3,1 -6,2 -6,2 0,0 0,0 0,0l-1 0 0 -5zm-10 11c1,-1 1,-1 1,-1 1,0 11,0 11,0 1,0 1,0 1,0l0 0 0 4c0,2 0,3 0,3 0,1 0,1 -6,1 -4,0 -6,0 -6,0 0,0 0,-1 0,-1 -1,0 -1,0 -1,-3 0,-2 0,-3 0,-3z"/>
  <path class="fil1" d="M8 12c4,0 6,0 6,0l1 -5 1 -5c0,0 -8,0 -9,0 0,0 -1,1 -1,1l-3 9c0,0 0,0 5,0z"/>
  <polygon class="fil1" points="17,7 16,12 16,12 20,12 25,12 25,12 24,7 23,2 20,2 18,2 18,2 "/>
  <path class="fil1" d="M26 7l1 5 0 0 6 0 6 0c0,0 -4,-9 -4,-9 0,-1 -1,-1 -1,-1 0,0 -1,0 -5,0l-4 0 0 0 1 5z"/>
  <path class="fil1" d="M25 14l-5 0 -4 0 0 4c0,4 0,4 0,4l5 -2 4 -2 0 -2 0 -2z"/>
  <path class="fil1" d="M39 29l-3 3 -2 3 0 0 1 1 3 -3c1,-1 3,-2 3,-2l-1 -1 -1 -1z"/>
  <path class="fil1" d="M40 30l1 1c0,0 -2,1 -3,2l-3 3 -1 -1 0 0 2 -3 3 -3 1 1zm-1 -3l-4 3 -4 4 0 2c-1,3 -1,3 -1,3 0,1 0,1 1,1 0,0 1,0 2,-1l3 -1 3 -3c3,-3 4,-4 4,-4 0,-1 0,-1 -2,-3l-1 -1 -1 0 0 0zm-6 10c0,0 0,0 0,0l0 0 -1 0 0 0 1 0 0 -1 0 1z"/>
  <path class="fil1" d="M45 25c2,2 3,5 3,7 0,6 -3,11 -9,13 -1,0 -4,0 -5,0 -5,-1 -9,-6 -9,-12 0,-7 6,-12 13,-11 2,0 5,1 7,3zm-7 -5c-1,0 -2,0 -4,0 -2,0 -5,2 -7,4 -2,2 -3,4 -4,7 0,1 0,3 0,4 0,1 1,3 1,3l0 1 -10 0c-7,0 -11,0 -11,0 0,0 -1,-1 -1,-1 0,-1 0,-1 0,-12l0 -12 6 0 6 0 0 5 0 5 1 0c0,0 0,0 0,0 0,0 3,-1 6,-2 4,-2 5,-2 5,-2l1 -1 0 -2 0 -3 6 0 6 0 0 3 0 3 -1 0zm-13 -8l-5 0 -4 0 0 0 1 -5 1 -5 0 0 2 0 3 0 1 5 1 5 0 0zm-9 -10l-1 5 -1 5c0,0 -2,0 -6,0 -5,0 -5,0 -5,0l3 -9c0,0 1,-1 1,-1 1,0 9,0 9,0zm-9 -2c-1,0 -2,1 -3,2l-2 6 -2 5 0 12c0,9 0,13 0,13 0,1 1,2 2,2 1,1 0,1 12,1l11 0 1 1c1,2 4,3 6,4 2,1 5,1 8,0 3,0 6,-3 8,-6 2,-3 2,-6 2,-9 -1,-4 -4,-8 -8,-10l-1 0 0 -4 0 -4 -2 -5 -2 -6c-1,-1 -1,-1 -2,-2l-1 0 -13 0c-12,0 -14,0 -14,0zm28 3c0,0 4,9 4,9l-6 0 -6 0 0 0 -1 -5 -1 -5 0 0 4 0c4,0 5,0 5,0 0,0 1,0 1,1zm-10 13l0 2 -4 2 -5 2c0,0 0,0 0,-4l0 -4 4 0 5 0 0 2z"/>
  <polygon class="fil1" points="15,33 15,31 11,31 6,31 6,33 6,35 11,35 15,35 "/>
  <path class="fil1" d="M11 31l4 0 0 2 0 2 -4 0 -5 0 0 -2 0 -2 5 0zm6 -2l0 0c0,0 0,0 -1,0 0,0 -10,0 -11,0 0,0 0,0 -1,1 0,0 0,1 0,3 0,3 0,3 1,3 0,0 0,1 0,1 0,0 2,0 6,0 6,0 6,0 6,-1 0,0 0,-1 0,-3l0 -4z"/>
  <path class="fil1" d="M38 22c-7,-1 -13,4 -13,11 0,6 4,11 9,12 1,0 4,0 5,0 6,-2 9,-7 9,-13 0,-2 -1,-5 -3,-7 -2,-2 -5,-3 -7,-3zm-3 8l4 -3 0 0 1 0 1 1c2,2 2,2 2,3 0,0 -1,1 -4,4l-3 3 -3 1c-1,1 -2,1 -2,1 -1,0 -1,0 -1,-1 0,0 0,0 1,-3l0 -2 4 -4z"/>
 </g>
</svg>
