<svg xmlns="http://www.w3.org/2000/svg" viewBox="0 0 50 50">
  <path d="M6.96875 2C6.800781 2.007813 6.617188 2.066406 6.46875 2.15625C6.175781 2.339844 6 2.652344 6 3L6 44L44 44L44 3C44 2.652344 43.828125 2.339844 43.53125 2.15625C43.234375 1.972656 42.871094 1.941406 42.5625 2.09375L41 2.875L39.4375 2.09375C39.15625 1.953125 38.84375 1.953125 38.5625 2.09375L37 2.875L35.4375 2.09375C35.15625 1.953125 34.84375 1.953125 34.5625 2.09375L33 2.875L31.4375 2.09375C31.15625 1.953125 30.84375 1.953125 30.5625 2.09375L29 2.875L27.4375 2.09375C27.15625 1.953125 26.84375 1.953125 26.5625 2.09375L25 2.875L23.4375 2.09375C23.15625 1.953125 22.84375 1.953125 22.5625 2.09375L21 2.875L19.4375 2.09375C19.15625 1.953125 18.84375 1.953125 18.5625 2.09375L17 2.875L15.4375 2.09375C15.15625 1.953125 14.84375 1.953125 14.5625 2.09375L13 2.875L11.4375 2.09375C11.15625 1.953125 10.84375 1.953125 10.5625 2.09375L9 2.875L7.4375 2.09375C7.28125 2.015625 7.136719 1.992188 6.96875 2 Z M 44 44L44 46L6 46L6 44L5 44C3.894531 44 3 44.894531 3 46C3 47.105469 3.894531 48 5 48L45 48C46.105469 48 47 47.105469 47 46C47 44.894531 46.105469 44 45 44 Z M 13 11L28 11C28.554688 11 29 11.449219 29 12C29 12.550781 28.554688 13 28 13L13 13C12.449219 13 12 12.550781 12 12C12 11.449219 12.449219 11 13 11 Z M 34 11L37 11C37.554688 11 38 11.449219 38 12C38 12.550781 37.554688 13 37 13L34 13C33.445313 13 33 12.550781 33 12C33 11.449219 33.445313 11 34 11 Z M 13 17L24 17C24.550781 17 25 17.449219 25 18C25 18.550781 24.550781 19 24 19L13 19C12.449219 19 12 18.550781 12 18C12 17.449219 12.449219 17 13 17 Z M 34 17L37 17C37.554688 17 38 17.449219 38 18C38 18.550781 37.554688 19 37 19L34 19C33.445313 19 33 18.550781 33 18C33 17.449219 33.445313 17 34 17 Z M 13 23L28 23C28.554688 23 29 23.449219 29 24C29 24.550781 28.554688 25 28 25L13 25C12.449219 25 12 24.550781 12 24C12 23.449219 12.449219 23 13 23 Z M 34 23L37 23C37.554688 23 38 23.449219 38 24C38 24.550781 37.554688 25 37 25L34 25C33.445313 25 33 24.550781 33 24C33 23.449219 33.445313 23 34 23 Z M 13 29L24 29C24.550781 29 25 29.445313 25 30C25 30.554688 24.550781 31 24 31L13 31C12.449219 31 12 30.554688 12 30C12 29.445313 12.449219 29 13 29 Z M 34 29L37 29C37.554688 29 38 29.445313 38 30C38 30.554688 37.554688 31 37 31L34 31C33.445313 31 33 30.554688 33 30C33 29.445313 33.445313 29 34 29 Z M 13 35C13.550781 35 14 35.449219 14 36C14 36.550781 13.550781 37 13 37C12.449219 37 12 36.550781 12 36C12 35.449219 12.449219 35 13 35 Z M 16 35C16.550781 35 17 35.449219 17 36C17 36.550781 16.550781 37 16 37C15.449219 37 15 36.550781 15 36C15 35.449219 15.449219 35 16 35 Z M 19 35C19.550781 35 20 35.449219 20 36C20 36.550781 19.550781 37 19 37C18.449219 37 18 36.550781 18 36C18 35.449219 18.449219 35 19 35 Z M 22 35C22.550781 35 23 35.449219 23 36C23 36.550781 22.550781 37 22 37C21.449219 37 21 36.550781 21 36C21 35.449219 21.449219 35 22 35 Z M 25 35C25.550781 35 26 35.449219 26 36C26 36.550781 25.550781 37 25 37C24.449219 37 24 36.550781 24 36C24 35.449219 24.449219 35 25 35 Z M 28 35C28.550781 35 29 35.449219 29 36C29 36.550781 28.550781 37 28 37C27.449219 37 27 36.550781 27 36C27 35.449219 27.449219 35 28 35 Z M 31 35C31.550781 35 32 35.449219 32 36C32 36.550781 31.550781 37 31 37C30.449219 37 30 36.550781 30 36C30 35.449219 30.449219 35 31 35 Z M 34 35C34.550781 35 35 35.449219 35 36C35 36.550781 34.550781 37 34 37C33.449219 37 33 36.550781 33 36C33 35.449219 33.449219 35 34 35 Z M 37 35C37.550781 35 38 35.449219 38 36C38 36.550781 37.550781 37 37 37C36.449219 37 36 36.550781 36 36C36 35.449219 36.449219 35 37 35 Z M 31 40L37 40C37.554688 40 38 40.445313 38 41C38 41.554688 37.554688 42 37 42L31 42C30.445313 42 30 41.554688 30 41C30 40.445313 30.445313 40 31 40Z" fill="#FFFFFF" />
</svg>