<?xml version="1.0" encoding="utf-8"?>
<svg xmlns="http://www.w3.org/2000/svg" viewBox="0 0 26 26" width="50" height="50">
  <path d="M13.15625 0.03125C12.058594 0.0195313 10.925781 0.167969 9.84375 0.4375C9.308594 0.574219 8.988281 1.121094 9.125 1.65625C9.261719 2.191406 9.808594 2.511719 10.34375 2.375C13.773438 1.519531 17.394531 2.371094 20.1875 4.8125L18 7L24 7L24 1L21.625 3.375C19.207031 1.226563 16.203125 0.0664063 13.15625 0.03125 Z M 1 2L3.3125 4.3125C0.339844 7.632813 -0.589844 12.148438 0.4375 16.25C0.574219 16.785156 1.121094 17.105469 1.65625 16.96875C2.191406 16.832031 2.511719 16.285156 2.375 15.75C1.511719 12.300781 2.28125 8.546875 4.71875 5.75L7 8L7 2 Z M 24.4375 8.875C24.148438 8.917969 23.894531 9.082031 23.738281 9.328125C23.582031 9.574219 23.539063 9.878906 23.625 10.15625C24.496094 13.632813 23.707031 17.417969 21.21875 20.21875L19 18L19 24L25 24L22.625 21.625C25.644531 18.300781 26.59375 13.785156 25.5625 9.65625C25.457031 9.179688 25.019531 8.847656 24.53125 8.875C24.5 8.875 24.46875 8.875 24.4375 8.875 Z M 2 19L2 25L4.3125 22.6875C7.632813 25.660156 12.148438 26.589844 16.25 25.5625C16.785156 25.425781 17.105469 24.878906 16.96875 24.34375C16.832031 23.808594 16.285156 23.488281 15.75 23.625C12.300781 24.488281 8.546875 23.71875 5.75 21.28125L8 19Z" fill="#313649" />
</svg>