<svg xmlns="http://www.w3.org/2000/svg" viewBox="0 0 50 50">
  <path d="M6 2L6 48L33 48C32.398438 48 32 48.398438 32 49C32 49.601563 32.398438 50 33 50L49 50C49.601563 50 50 49.601563 50 49C50 48.398438 49.601563 48 48.902344 48L48 48L48 45C48 43.601563 47.398438 42.300781 46.097656 41.300781L44.597656 40L46.097656 38.699219C47.398438 37.699219 48 36.398438 48 35L48 32L49 32C49.601563 32 50 31.601563 50 31C50 30.398438 49.601563 30 49 30L44 30L44 2 Z M 14 11L36 11L36 13L14 13 Z M 14 24L18 24L18 26L14 26 Z M 21 24L36 24L36 26L21 26 Z M 14 30L18 30L18 32L14 32 Z M 21 30L33 30C32.398438 30 32 30.398438 32 31C32 31.601563 32.398438 32 33 32L21 32 Z M 36 32L46 32L46 35C46 35.800781 45.699219 36.5 44.902344 37.199219L42.5 39.199219C42.199219 39.398438 42.097656 39.699219 42.097656 40C42.097656 40.300781 42.199219 40.597656 42.5 40.699219L44.902344 42.800781C45.699219 43.5 46 44.101563 46 45L46 48L44 48C44 46 41 44 41 44C41 44 38 46 38 48L36 48L36 45C36 44.101563 36.398438 43.5 37.199219 42.800781L39.597656 40.800781C39.898438 40.601563 40 40.300781 40 40C40 39.699219 39.898438 39.402344 39.597656 39.300781L37.199219 37.199219C36.398438 36.5 36 35.800781 36 35 Z M 38 35C38 37.199219 41 38 41 38C41 38 44 37.199219 44 35 Z M 14 36L18 36L18 38L14 38 Z M 21 36L34.125 36C34.300781 36.722656 34.667969 37.394531 35.191406 38L21 38Z" fill="#FFFFFF" />
</svg>