<?xml version="1.0" encoding="utf-8"?>
<svg xmlns="http://www.w3.org/2000/svg" viewBox="0 0 26 26" width="50" height="50">
  <path d="M7 0C4.796875 0 3 1.796875 3 4L3 22C3 24.203125 4.796875 26 7 26L19 26C21.203125 26 23 24.203125 23 22L23 8C23 6.9375 22.027344 5.929688 20.28125 4.21875C20.039063 3.980469 19.777344 3.714844 19.53125 3.46875C19.285156 3.222656 19.019531 2.992188 18.78125 2.75C17.070313 1.003906 16.0625 0 15 0 Z M 7 2L14.28125 2C15.003906 2.183594 15 3.050781 15 3.9375L15 7C15 7.550781 15.449219 8 16 8L19 8C19.996094 8 21 8.003906 21 9L21 22C21 23.105469 20.105469 24 19 24L7 24C5.894531 24 5 23.105469 5 22L5 4C5 2.894531 5.894531 2 7 2 Z M 9.1875 9.65625C8.875 9.714844 8.625 9.945313 8.539063 10.25C8.449219 10.554688 8.546875 10.882813 8.78125 11.09375C8.78125 11.09375 12.082031 14.394531 12.4375 14.75C12.695313 15.007813 13.023438 15.164063 13.4375 15.1875C13.851563 15.210938 14.332031 15.042969 14.65625 14.71875L17.09375 12.28125C17.421875 11.953125 17.421875 11.421875 17.09375 11.09375C16.765625 10.765625 16.234375 10.765625 15.90625 11.09375C15.90625 11.09375 14.238281 12.761719 13.53125 13.46875C13.070313 13.011719 9.96875 9.90625 9.96875 9.90625C9.789063 9.722656 9.535156 9.628906 9.28125 9.65625C9.25 9.65625 9.21875 9.65625 9.1875 9.65625 Z M 13.59375 15.3125C13.179688 15.289063 12.734375 15.453125 12.40625 15.78125L8.78125 19.4375C8.539063 19.640625 8.433594 19.964844 8.511719 20.273438C8.585938 20.582031 8.832031 20.816406 9.140625 20.886719C9.449219 20.953125 9.769531 20.839844 9.96875 20.59375L13.53125 17.03125C13.992188 17.492188 15.90625 19.40625 15.90625 19.40625C16.234375 19.734375 16.765625 19.734375 17.09375 19.40625C17.421875 19.078125 17.421875 18.546875 17.09375 18.21875C17.09375 18.21875 14.976563 16.132813 14.625 15.78125C14.367188 15.523438 14.007813 15.335938 13.59375 15.3125Z" fill="#313649" />
</svg>